<svg xmlns="http://www.w3.org/2000/svg" viewBox="0 0 1075 766.4" xmlns:v="https://vecta.io/nano"><ellipse cx="952" cy="736.4" rx="123" ry="30" fill="#3f3d56"/><path d="M521.3 102.9v397c0 9.8-8 17.8-17.8 17.8H342.3c-9.8 0-17.8-7.9-17.8-17.8v-.1-397c0-9.9 8-17.8 17.8-17.8h24.1v3.1c0 8.1 6.6 14.7 14.7 14.7h82c8.1 0 14.7-6.6 14.7-14.7V85h25.7c9.8.1 17.8 8 17.8 17.9z" fill="#d66850"/><path d="M331.6 151.4h182.7v89H331.6z" fill="#3f3d56"/><path d="M405.1 212.5c4.8 17.7 21.2 28.6 21.2 28.6s8.6-17.7 3.8-35.4-21.1-28.6-21.1-28.6-8.7 17.7-3.9 35.4z" fill="#fff"/><path d="M412.2 208.7c13.1 12.8 14.7 32.4 14.7 32.4s-19.7-1.1-32.8-13.9-14.7-32.4-14.7-32.4 19.6 1.1 32.8 13.9z" fill="#d66850"/><path d="M448.6 212.5c-4.8 17.7-21.2 28.6-21.2 28.6s-8.6-17.7-3.8-35.4 21.2-28.6 21.2-28.6 8.6 17.7 3.8 35.4z" fill="#fff"/><path d="M441.6 208.7c-13.1 12.8-14.7 32.4-14.7 32.4s19.7-1.1 32.8-13.9 14.7-32.4 14.7-32.4-19.7 1.1-32.8 13.9z" fill="#d66850"/><path d="M347.9 290.2h150v8.2h-150zm0 13.3h150v8.2h-150zm0 13.3h150v8.2h-150zm0 13.3h150v8.2h-150zm46.451 80.664l23.735-33.431 33.431 23.735-23.735 33.431z" fill="#f0f0f0"/><path d="M427.5 443c-5.2 0-9.5-4.2-9.5-9.5 0-5.2 4.2-9.5 9.5-9.5 5.2 0 9.5 4.2 9.5 9.5-.1 5.3-4.3 9.5-9.5 9.5zm0-17.3a7.92 7.92 0 0 0-7.9 7.9 7.92 7.92 0 0 0 7.9 7.9 7.92 7.92 0 0 0 7.9-7.9h0c-.1-4.4-3.6-7.9-7.9-7.9h0z" fill="#3f3d56"/><path d="M196.9 17.8v397c0 9.8-8 17.8-17.8 17.8H17.8C8 432.7 0 424.7 0 414.9v-.1-397C0 8 8 0 17.8 0H42v3.1c0 8.1 6.6 14.7 14.7 14.7h82c8.1 0 14.7-6.6 14.7-14.7V0H179c9.9 0 17.9 8 17.9 17.8z" fill="#f2f2f2"/><g fill="#3f3d56"><path d="M176.4 216.8H18.9v-141h157.5v141zm-155.9-1.6h154.4V77.4H20.5v137.8z"/><path d="M19.175 77.151l1.066-1.193L176.2 215.39l-1.066 1.193z"/><path d="M19.182 215.374L175.141 75.942l1.066 1.193L20.249 216.567zM19.7 257.7h155.9v1.6H19.7zm0 14.2h155.9v1.6H19.7zm0 14.2h155.9v1.6H19.7zm0 14.2h78v1.6h-78zm0 14.1h78v1.6h-78z"/></g><path d="M845 17.8v397c0 9.8-8 17.8-17.8 17.8H666c-9.8 0-17.8-7.9-17.8-17.8v-.1-397C648.2 8 656.2 0 666 0h24.1v3.1c0 8.1 6.6 14.7 14.7 14.7h82c8.1 0 14.7-6.6 14.7-14.7V0h25.7C837 0 845 8 845 17.8z" fill="#f2f2f2"/><path d="M669.4 203.4h155.9v1.6H669.4zm0 40.9h155.9v1.6H669.4zm0 41h155.9v1.6H669.4z" fill="#3f3d56"/><g fill="#d66850"><circle cx="749.2" cy="118" r="25.6"/><path d="M786 196.3h11v25.2h-11zm-96.9 40.2h11v25.2h-11zm64.6 40.1h11v25.2h-11z"/></g><g fill="#3f3d56"><path d="M216.59 209.48l1.542-1.273 63.224 76.57-1.542 1.273z"/><path d="M288.2 294.8c-5.2-3-12.5-6.2-18.2-7.1l9.5-3.4 5.1-8.7c-.1 5.7 1.7 13.4 3.6 19.2zm274.774-10.021l63.204-76.59 1.543 1.273-63.204 76.59z"/><path d="M556 294.8c2-5.7 3.7-13.4 3.5-19.2l5.1 8.7 9.5 3.4c-5.6.9-12.8 4-18.1 7.1z"/></g><g fill="#2f2e41"><path d="M1016.5 377.9s0 146-23 199l-53 119s-34-2-36-16l40-124 24-73 6-114 42 9z"/><path d="M983.5 381.9l-9 61 6 134 3 74s12 33 8 36l-8 6s-32-4-33-6-20-153-20-153-39-122-37-124 11-32 11-32l79 4z"/><path d="M990.5 682.9l4 23s11 47 0 47-31-13-32-21 2-44 2-44l26-5z"/><path d="M939.5 690.9s8 16 13 18 27.8 15.1 14.4 23.5-27.4.5-27.4.5l-46-25s6-25 15-27 31 10 31 10z"/></g><g fill="#ffb8b8"><circle cx="929.5" cy="120.9" r="36"/><path d="M959.5 123.9s7 46 14 52-15 27-25 26-21-23-21-23 3-29-2-37 34-18 34-18z"/></g><g fill="#3f3d56"><path d="M951.5 182.9l17-15.7c5.5 6.9 12.3 12.5 20 16.7 13 7-25 79-25 79l-61-76s19.4-12.9 25.7-17.9l23.3 13.9z"/><path d="M961.5 243.9s26.8-46.7 23.9-61.9c0 0 39.1 9.9 41.1 22.9s-19 60-19 60 17 119 7 120-110 2-112-3 2-20-4-25-13-2-10-10 16-18 12-24-5-4-4-8-2-57-2-57-21-58-16-62 31.2-13.9 31.2-13.9l51.8 61.9z"/></g><path d="M1041.5 399.9s-3 40-20 38 3-45 3-45l17 7zm-149-1s6 24 13 22v-28l-3-5-10 11z" fill="#ffb8b8"/><path d="M958.9 126c-.1-1-.4-2-1-2.9-.6-.7-1.3-1.1-2.2-1.4-4.6-1.4-9.6.7-11.7 5-.9 2-1.4 4.6-3.4 5.5-2.4 1-5-1.2-5.9-3.6s-.9-5.1-2.2-7.4c-1.5-2.7-4.4-4.3-7.4-4.9-2.5-.5-5.5-.8-6.6-3.1-.4-.9-.5-1.8-.5-2.7 0-3.3.6-6.7 1.8-9.8-9.8-2-18.5 7.6-28.5 7.8-1.3.1-2.5-.2-3.7-.7-2.2-1.2-3.2-3.8-3.8-6.2a109.64 109.64 0 0 1-1.8-7.8l3.2 1.5c-.9-1.7-1.4-3.6-1.4-5.5 1.7-.2 3.3 0 4.9.4l.2-5.7c2.5 3.1 7.4 2 11.1.6 7.2-2.8 14.3-5.8 21.8-7.4s15.6-1.7 22.7 1.2c7.5 3.1 13.3 9.2 18.3 15.5 2.8 3.5 5.5 7.2 7.1 11.4 1.9 5.7 1.9 11.9-.1 17.6-1.6 5.1-4.7 11.3-8.8 14.9-1.2-3.7-1.4-8.4-2.1-12.3z" fill="#2f2e41"/><path d="M890.5 192.9l-13 3s-15 16-16 31-1 90-1 90l19 62s-2 14 0 14 3-3 3 1-5 0 0 4l10 8 16.7-22.2s1.3-8.8-1.7-10.8-3-3-2-6 3-4 2-6-4-5-4-7 0-4-1-5-8-25-8-25l4-78-8-53zm126 5l10 5s16 48 16 90 3 70 3 70 5 12 3 12-4 0-2 3 3 2 2 5-2-2-1 3 0 7-2 7-2 13-2 13l-24-9s4-5 3-7c-.6-1.2-.9-2.6-1-4 0 0 5-1 0-3s-3-2-2-8 4-5 1-6-21-94-21-94l17-77z" fill="#3f3d56"/><g fill="#2f2e41"><circle cx="951.5" cy="183.2" r="3"/><circle cx="951.5" cy="193.2" r="3"/></g></svg>