<svg xmlns="http://www.w3.org/2000/svg" xmlns:xlink="http://www.w3.org/1999/xlink" viewBox="0 0 421.27 200.39" xmlns:v="https://vecta.io/nano"><defs><linearGradient id="A" x1="221.25" y1="99.99" x2="421.27" y2="99.99" gradientUnits="userSpaceOnUse"><stop offset="0" stop-color="#fff"/><stop offset=".09" stop-color="#f6fdfc"/><stop offset=".23" stop-color="#def8f4"/><stop offset=".41" stop-color="#b6f0e7"/><stop offset=".62" stop-color="#7fe5d5"/><stop offset=".86" stop-color="#39d7be"/><stop offset="1" stop-color="#0bceaf"/><stop offset="1"/></linearGradient><linearGradient id="B" x1="319.41" y1="174.93" x2="319.51" y2="174.93" xlink:href="#A"/><linearGradient id="C" x1="0" y1="99.75" x2="200.03" y2="99.75" xlink:href="#A"/><linearGradient id="D" x1="6.18" y1="56.19" x2="123.75" y2="56.19" xlink:href="#A"/><linearGradient id="E" x1="7.79" y1="170.78" x2="95.06" y2="170.78" xlink:href="#A"/></defs><path d="M420.86 64.48c-.9 6.7-3.2 11.3-7.8 19.9-13.5 25.1-20.3 37.6-29.7 50.5-21 28.6-44.9 50.5-63.1 65.1a289.3 289.3 0 0 1-55-55.9c-11-14.8-20.2-34.5-38.6-73.9-2.3-4.8-5.2-11.5-5.4-20.4-.3-16.1 8.4-31.8 24.5-42.1 17.2-10.9 37.8-10.2 51 2.1 13.5 12.7 11.7 28.8-1.8 41.8a44.49 44.49 0 0 0-5.4 6.1 64.89 64.89 0 0 0-14.8 39.8 54.86 54.86 0 0 0 1.6 14.1c2.6 12 10.4 24.6 10.4 24.6 9.9 16.4 23.8 28.4 31 34.2a138.86 138.86 0 0 0 15-12s16.8-15.7 24.7-33.5l1.6-3.8a56.34 56.34 0 0 0 3.2-13.8 63.85 63.85 0 0 0-10.1-40.9 48.68 48.68 0 0 0-4.7-6.5c-12-14.2-11.9-30.4 3-41.8 14.6-11.1 35.2-10 51 2.4 14.8 11.6 21.6 28 19.4 44z" fill="url(#A)"/><path d="M319.46,175a.1.1,0,0,1-.1-.1" fill="url(#B)"/><path d="M37.36 21.08c6.5-5.9 14.5-9.7 22.9-12.7 26.7-9.2 53.9-11.2 81-1.9 26.3 9 40.2 27.1 43.5 52a78.27 78.27 0 0 1-.8 26c-2.3 11.5-8.3 21.3-17.3 29.6a60.16 60.16 0 0 0-5.6 5.7c-2.9 3.5-2.9 6.3-.2 10a38.68 38.68 0 0 0 6.8 6.6c5.7 4.5 11.9 8.4 18 12.3 6.8 4.3 11.9 9.9 13.6 17.4 2.4 10.3-.8 19.1-9.4 26.1-9 7.3-19.5 8.5-30.7 5.1-8.3-2.5-15-7.3-21.1-12.8-7.3-6.4-13.3-13.8-19.7-21-8.5-9.5-17.7-18.5-30.1-24-21.3-9.4-42.6-8.6-63.2 1.9-11.6 6-19.3 14.9-21.8 27.8a40.77 40.77 0 0 1-2.5-10.5c-1.5-10.5-1.1-20.9 4.1-30.6 7-13.3 19.7-20.2 34.9-23.7 14.7-3.4 29.4-2.9 44.3-.5 15.8 2.6 29.7-.8 39.8-12.7 7.6-8.9 7.9-19.1 4.9-29.3-6.2-20.7-21.5-34-43-41.9-16.1-5.9-32.3-5.9-48.2 1.3.1 0 0-.1-.2-.2z" fill="url(#C)"/><path d="M123.46,76c-7.7-16.8-24.3-25.8-44.6-24.1-6.7.6-13.1,1.8-19,4.9-6.7,3.5-11.4,8.5-13.5,15.4a24.47,24.47,0,0,1-3.7,7.4,21,21,0,0,1-21,8.3,18.8,18.8,0,0,1-15.1-15.8C4.16,56.48,13.36,40,29,31.58c25-13.4,62.9-8.3,82.5,11.1C121.16,52,124.86,63.28,123.46,76Z" fill="url(#D)"/><path d="M95.06 151.08c-1.5.6-2.4 0-3.3-.3a24.51 24.51 0 0 0-20.6 3.1c-5.8 3.7-10 8.6-13.7 13.9-5.1 7.2-8.9 15-12.7 22.8-2.2 4.6-5.4 8.3-11.2 9.5-5.1 1-9.6-.5-13.6-3.1-13.6-8.6-16.2-25.4-5.8-37.8 10.7-12.8 25.4-18.2 42.8-18a83.74 83.74 0 0 1 38.1 9.9z" fill="url(#E)"/></svg>