<svg xmlns="http://www.w3.org/2000/svg" xmlns:xlink="http://www.w3.org/1999/xlink" viewBox="0 0 1126.6 785.9" xmlns:v="https://vecta.io/nano"><style><![CDATA[.b{opacity:.1}.c{fill:#c0bccf}.d{opacity:.8}.e{fill:#cb919b}.f{fill:#53350a}.g{fill:#2588cd}.h{fill:#8db600}.i{fill:#474059}.j{stroke-miterlimit:10}.k{fill:#d6e6f9}.l{fill:#ffced8}.m{fill:#3f3d56}.n{fill:#6c63ff}]]></style><path d="M1060 458.2c-39.1 53.7-26.2 130.4-3.6 191.5 7.6 20.5 16.2 42.1 12.3 64.3-4.8 27.2-27.4 47.6-50.8 58.7-42.8 20.2-93.3 17-131.5-8.5-33-22-56.2-58.6-89.9-79.5-56.3-35-129.4-19.4-192 7.4-44.3 18.9-92.9 43.3-136.1 25.8-30.4-12.3-50.9-43.6-61.6-77.1-5.2-16.2-8.8-33.7-19.2-46.3-6.2-7.5-14.3-12.8-22.7-17.1-76.4-40-174.6-15-248.7-59.6-50-30.1-81.1-88.6-94.1-150.1s-9.7-126.4-4.6-190.2C21.2 132.1 27 83.6 54.2 48 83.1 10.3 131.4-4.7 174.6 1.2s81.9 29.9 115.8 58.5c42.4 35.8 81.4 80.6 134.1 94.2 35.9 9.2 74.1 2.7 111.4-.2 62.4-4.8 124.6.7 186.4 7 59.2 6 118.7 12.7 174.8 32.4 39.7 13.9 71.1 40.2 108.4 58.2 24.3 11.7 51.1 14.4 74 29.6 28.3 18.6 53.8 51.7 45.5 91.3-7.8 37.8-44.2 57.5-65 86z" class="b g"/><path d="M390.3 158.9h186.2c5.3 0 9.6 4.3 9.6 9.6v118.8c0 5.3-4.3 9.6-9.6 9.6H390.3c-5.3 0-9.6-4.3-9.6-9.6V168.5c-.1-5.3 4.3-9.6 9.6-9.6z" class="i"/><g fill="#fff"><path d="M385 175h196.4v112.8H385z"/><ellipse cx="483.2" cy="169.2" rx="1.7" ry="1.9"/></g><g class="i"><path d="M464.8 292h36v38h-36z"/><path d="M461.8 327h44a6.02 6.02 0 0 1 6 6h0 0-56 0 0c0-3.4 2.7-6 6-6z"/></g><path d="M232.8 359h148v51h-148zm604-25h32v278h-32z" class="c"/><path d="M232.8 359h148v3h-148zm604-25h32v28h-32z" class="b"/><path d="M232.8 408h148v51h-148z" class="c"/><g class="f"><circle cx="306.8" cy="433" r="9"/><circle cx="306.8" cy="384" r="9"/></g><path d="M232.8 459h148v51h-148z" class="c"/><circle cx="306.8" cy="483" r="9" class="f"/><path d="M232.8 510h148v51h-148z" class="c"/><circle cx="306.8" cy="534" r="9" class="f"/><path d="M232.8 561h148v51h-148z" class="c"/><g class="f"><circle cx="306.8" cy="585" r="9"/><circle cx="305.8" cy="433" r="9"/><circle cx="305.8" cy="384" r="9"/><circle cx="305.8" cy="483" r="9"/><circle cx="305.8" cy="534" r="9"/><circle cx="305.8" cy="585" r="9"/></g><path d="M232.8 456h148v4h-148zm0-50h148v4h-148zm0 101h148v4h-148zm0 51h148v4h-148z" class="b"/><path d="M151.6 575.2s-3.3-97.8-56.2-153c-22.2-23.2-36.8-52.6-40.6-84.5-1.8-15.1-2.2-30.4-1.2-45.6" fill="none" stroke="#535461" stroke-width="2" class="j"/><path d="M19.4 257.2c3.6 10.9 33.9 36 33.9 36s9.3-38.2 5.7-49.1-15.4-16.8-26.3-13.2a20.8 20.8 0 0 0-13.3 26.3h0zM6.8 328.5c9 7.2 48 11.8 48 11.8s-13-37.1-22-44.3-22.1-5.8-29.3 3.2-5.7 22.1 3.3 29.3h0 0zm35.7 102.9c11.4 1.7 47.4-14 47.4-14s-30-25.5-41.3-27.2c-11.4-1.7-22 6.2-23.6 17.6-1.7 11.3 6.1 21.9 17.5 23.6h0 0zM87 503.1c10.9 3.6 49.1-5.8 49.1-5.8s-25.2-30.2-36.1-33.8-22.7 2.4-26.3 13.3A20.8 20.8 0 0 0 87 503.1h0zm10-174.4c-5.3 10.2-39.2 30.2-39.2 30.2s-3.1-39.2 2.2-49.4 17.9-14.2 28.1-8.9c10.3 5.3 14.2 17.9 8.9 28.1zm51 84.5c-8.1 8.1-46.4 17.1-46.4 17.1s8.8-38.3 16.9-46.5c8.1-8.1 21.3-8.2 29.4-.1 8.2 8.2 8.2 21.4.1 29.5h0zm38.3 89c-6.6 9.4-42.9 24.7-42.9 24.7s2.2-39.3 8.8-48.7c6.3-9.6 19.2-12.3 28.8-6s12.3 19.2 6 28.8c-.2.5-.4.9-.7 1.2h0z" class="h"/><path d="M140 534.8s30-43.6 24.7-84.7c-2.3-17.2 1-34.7 9.5-49.9 4.1-7.2 8.8-14 14.1-20.3" fill="none" stroke="#535461" stroke-width="2" class="j"/><g class="g"><use xlink:href="#B"/><use xlink:href="#C"/><use xlink:href="#D"/><use xlink:href="#E"/><use xlink:href="#F"/><use xlink:href="#G"/><use xlink:href="#H"/></g><g class="h"><use xlink:href="#B" class="d"/><use xlink:href="#C" class="d"/><use xlink:href="#D" class="d"/><use xlink:href="#E" class="d"/><use xlink:href="#F" class="d"/><use xlink:href="#G" class="d"/><use xlink:href="#H" class="d"/></g><path d="M195.5 653.1h-85.3L88.8 523h128z" class="i"/><path d="M200.5 523l-19.9 121.6h-71.8l1.4 8.5h85.3L216.8 523z" class="b"/><path d="M229.8 330h643v30h-643z" class="c"/><path d="M500.8 188.9h72v3h-72zm0 8h72v3h-72zm0 8h72v3h-72zm0 8h72v3h-72zm0 8h72v3h-72zm0 8h72v3h-72zm0 8h72v3h-72zm0 8h72v3h-72zm0 8h72v3h-72zm0 8.1h72v3h-72zm0 8h72v3h-72z" fill="#e8eaf1"/><path d="M707.3 598.5l-4 26-24-5 6-21c1-4 1 0 1 0h21zm-108 21l-24 5-2.8-18-1.2-8h21s0-4 1 0l2.2 8 3.8 13z" class="k"/><path d="M595.6 606.5h-23l-1.2-8h21s0-4 1 0c.3 1.4 1.2 4.5 2.2 8zm87.5-.5h23l1.2-8h-21s0-4-1 0c-.3 1.4-1.2 4.5-2.2 8z" class="b"/><path d="M730.3 283.5s13 1 16 48c1.1 17.6 3.3 35.2 6.8 52.5a74.26 74.26 0 0 1-4 43.2l-12.8 31.3s-24-20-32-19c0 0 14-19 13-30s-17-90-17-90l30-36z" class="k"/><path d="M580.3 432.5s-31 19-38 27-4 40 0 53l29 92h25s-8-49-5-53-6-75-6-75l-5-44zm118 0s31 19 38 27 4 40 0 53l-29 92h-25s8-49 5-53 6-75 6-75l5-44z" fill="#5f546f"/><path d="M580.3 432.5s-31 19-38 27-4 40 0 53l29 92h25s-8-49-5-53-6-75-6-75l-5-44zm118 0s31 19 38 27 4 40 0 53l-29 92h-25s8-49 5-53 6-75 6-75l5-44z" class="b"/><path d="M633.3 179.4s0 39-14 59 64 3 64 3c-3.6-2.6-6.2-6.3-7.5-10.5-4.1-14.7-5.7-40.5.5-51.5 9-16-43 0-43 0z" class="l"/><circle cx="655.8" cy="172.9" r="33" class="b"/><circle cx="655.8" cy="171.9" r="33" class="l"/><use xlink:href="#I" fill="#5f546f"/><use xlink:href="#I" class="b"/><use xlink:href="#J" class="b"/><use xlink:href="#J" y="1" fill="#bc8387"/><use xlink:href="#K" class="b"/><use xlink:href="#K" y="1" fill="#bc8387"/><path d="M512.3 204.4s9-29-15-33-18 31 0 44 15-11 15-11z" class="l"/><path d="M698.3 433.5c-28 46-122-6-122-6s-2.2-1.2-3.8-5.2c.8-2.4 1.5-4.9 2.1-7.2 2.5-9 10.6-15.2 19.9-15.1h77c9.3 0 17.5 6.2 19.9 15.2 1.1 4.1 2.7 8.1 4.9 11.7 1.1 4.1 2 6.6 2 6.6z" class="b"/><path d="M635.3 210.5h-6s-4 18-17 18c-3.5 0-8.2-.2-13.3-.5-15.3-.8-30.7 1-45.4 5.4-5.1 1.5-10.6 1.6-15.3-1.9-12-9-25-33-25-33s-23-1-24 12 11 37 14 40 3 22 24 27 36 7 37 32 21 51 11 80 1 35 1 35 94 52 122 6c0 0-11-31 0-46s6-52 6-52l36-36s1-23-14-35-50-31-50-31l3.5-14.9-44.5-5.1z" class="k"/><path d="M637.4 181.1c-.8 9.4-.5 20.1 6.5 26.5 3.4 3.1 8 4.7 12.5 5.8 4.7 1.1 9.6 1.9 14.4 2.1 4.4.2 9.2 0 12.9-2.4 7.6-4.9 7.5-15.9 10.5-24.5 2.2-6.1 6.2-11.2 9.1-17 5.3-10.4 6.5-23.3 1.6-33.9s-16.5-18.2-28.2-16.9c-3.8.6-7.5 1.6-11 3.1-8.4 3.1-15-5.6-23.5-2.6-4.6 1.7-22.9 3.5-24 9-1.3 6.5 16.4 22.7 18.3 28.4 2.6 7.5.9 14.9.9 22.4z" fill="#ae767a"/><path d="M622.8 223.4s6 2.5 23 7.5 30 0 30 0m-98 135.5s28 1.6 37 13.6 12 16 23 16 46 2 51 4" class="b"/><path d="M636.5 669.4h16.7v19.1h-16.7z" class="c"/><g class="e"><path d="M741.6 434.1h13.1v96.7h-13.1z"/><path d="M720.1 529.7h28.7v3.6h-28.7zm-183.9-95.6h13.1v96.7h-13.1z"/><path d="M538.5 529.7h28.7v3.6h-28.7z"/></g><path d="M632.9 535.6h27.5v117h-27.5z" class="c"/><use xlink:href="#L" class="e"/><use xlink:href="#L" fill="#fff" class="b"/><path d="M645.2 488.8c70.6 2.5 72.8-24.6 72.8-24.6l-4.5-74.9c-1.1-116.7-68.3-99.5-68.3-99.5s-67.2-17.2-68.3 99.5l-4.5 74.9c0 0 2.3 27 72.8 24.6z" class="e"/><path d="M643 456.8h4.9c6.9 0 12.5 5.6 12.5 12.5v26.4c0 6.9-5.6 12.5-12.5 12.5H643c-6.9 0-12.5-5.6-12.5-12.5v-26.4c0-6.9 5.6-12.5 12.5-12.5z" class="c"/><path d="M660.3 648.5v4.2h-27.4v-4.1l2.4-.6H658l2.3.5z" class="b"/><path d="M535 688.5s-12-9.5 100.4-39.4H658s96.7 23.9 97.9 39.4h-14.3S689.1 673 665.2 673s-95.5 2.4-117 15.5H535z" class="c"/><path d="M539.6 419.8h5c7.2 0 13 5.8 13 13h0v6.1h0-31 0v-6.1c0-7.2 5.8-13 13-13h0zm205.4 0h5c7.2 0 13 5.8 13 13h0v6.1h0-31 0v-6.1c0-7.2 5.8-13 13-13h0z" class="e"/><g fill="#5a5773"><circle cx="540.9" cy="696.9" r="8.4"/><circle cx="644.8" cy="696.9" r="8.4"/><circle cx="749.9" cy="696.9" r="8.4"/></g><path d="M632.9 535.6h27.5v4.8h-27.5z" class="b"/><use xlink:href="#M" class="e"/><use xlink:href="#M" fill="#fff" class="b"/><path d="M647.2 538h80l6-10.2c3.6-17.4-9.5-18.4-9.5-18.4H570.8s-13.1 1-9.5 18.4l6 10.2h79.9z" class="e"/><path d="M808.3 300.4s-9.1-3.1-13.5 5c-2.4 4.4-2.3 9.8.2 14.1 2.9 5.2 8.8 12 20.1 11.4 9.6-.5 12.7-7.8 13.6-14.6 1-8.2-4.8-15.7-13-16.7-2.3-.3-4.7 0-6.9.7l-.5.1z" class="h"/><path d="M796.9 320.2c-2.5-4.4-2.5-9.7-.2-14.1 4.4-8 13.5-5 13.5-5l.5-.2c3.5-1.3 7.3-1.2 10.7.2-3.8-2.3-8.5-2.7-12.7-1.2l-.5.2s-9.1-3.1-13.5 5c-2.4 4.4-2.3 9.8.2 14.1 2.3 4.3 5.9 7.7 10.3 9.8a23.44 23.44 0 0 1-8.3-8.8z" fill="#fff" class="b"/><path d="M803.6 304.3s3.4 2.7 11.6 0" opacity=".2"/><path d="M802.9 285s5.8 15.7 5.3 19.8l4.6-.5s-7.7-13.8-5.8-19.3h-4.1z" class="g"/><path d="M802.9 285s5.8 15.7 5.3 19.8l4.6-.5s-7.7-13.8-5.8-19.3h-4.1z" class="f"/><path d="M826.6 286.3s-9.1-4.7-13.2-.8-4.7 13.7-4.7 13.7 14.8 2 17.9-12.9z" class="g"/><path d="M826.6 286.3s-9.1-4.7-13.2-.8-4.7 13.7-4.7 13.7 14.8 2 17.9-12.9z" class="h"/><path d="M808.7 299.2s2.4-11.5 17.9-12.9" fill="none" stroke="#53350a" class="j"/><path d="M459.3 208.6v9.8c0 .2-.2.3-.3.3h-.2v50.9a5.34 5.34 0 0 1-5.3 5.3h-31.8a5.34 5.34 0 0 1-5.3-5.3v-49.1h-.2c-.1 0-.2-.1-.2-.2v-5.6c0-.1.1-.2.2-.2h.2v-2.1h-.2c-.1 0-.3-.1-.3-.3v-5.5c0-.1.1-.3.3-.3h.2v-2.9h-.4c-.1 0-.2-.1-.2-.2v-3c0-.1.1-.2.2-.2h.2v-6a5.34 5.34 0 0 1 5.3-5.3h31.8a5.34 5.34 0 0 1 5.3 5.3v14.3h.2c.3 0 .5.2.5.3z" class="m"/><g fill="#e6e8ec"><path d="M433.8 191.5h5.2c.2 0 .4.2.4.4v.4c0 .2-.2.4-.4.4h-5.2c-.2 0-.4-.2-.4-.4v-.4c0-.3.2-.4.4-.4z"/><circle cx="440.9" cy="192.1" r=".7"/></g><path d="M456.1 195.1v75a3.37 3.37 0 0 1-3.4 3.4h-30.5a3.37 3.37 0 0 1-3.4-3.4v-75a3.37 3.37 0 0 1 3.4-3.4h4.6v.6c0 1.5 1.2 2.8 2.8 2.8h15.5c1.5 0 2.8-1.2 2.8-2.8v-.6h4.9c1.8 0 3.3 1.5 3.3 3.4z" fill="#fff"/><path d="M422.1 241.1h31v4h-31zm0 7.2h31v4h-31zm0 7.1h31v4h-31z" fill="#e6e6e6"/><circle cx="449.7" cy="202.3" r="3" class="n"/><path d="M422.1 212.2h31v20.5h-31z" fill="#e6e6e6"/><path d="M434.4 223.8c.9 3.3 4 5.4 4 5.4s1.6-3.3.7-6.7-4-5.4-4-5.4-1.6 3.3-.7 6.7z" class="m"/><path d="M435.7 223.1c2.5 2.4 2.8 6.1 2.8 6.1s-3.7-.2-6.2-2.6-2.8-6.1-2.8-6.1 3.7.2 6.2 2.6z" class="n"/><path d="M442.6 223.8c-.9 3.3-4 5.4-4 5.4s-1.6-3.3-.7-6.7 4-5.4 4-5.4 1.6 3.3.7 6.7z" class="m"/><path d="M441.3 223.1c-2.5 2.4-2.8 6.1-2.8 6.1s3.7-.2 6.2-2.6 2.8-6.1 2.8-6.1-3.7.2-6.2 2.6z" class="n"/><defs ><path id="B" d="M185.2 354.1c-1.9 5.9 3.2 26.6 3.2 26.6s16.3-13.7 18.3-19.6c1.9-5.9-1.3-12.3-7.2-14.2s-12.4 1.3-14.3 7.2h0z"/><path id="C" d="M156.7 381.1c1.6 6 17.1 20.6 17.1 20.6s6.3-20.3 4.7-26.4c-1.6-6-7.8-9.6-13.8-8s-9.6 7.8-8 13.8h0 0z"/><path id="D" d="M139.2 437.3c4.4 4.4 25.2 9.1 25.2 9.1s-4.8-20.7-9.3-25.1c-4.4-4.4-11.6-4.4-15.9.1-4.5 4.4-4.4 11.6 0 15.9h0z"/><path id="E" d="M135.5 483c3.6 5.1 23.3 13.3 23.3 13.3s-1.3-21.3-4.9-26.3c-3.6-5.1-10.6-6.3-15.7-2.7-5.1 3.5-6.3 10.6-2.7 15.7h0z"/><path id="F" d="M196 410.2c-5.6 2.7-26.8.5-26.8.5s11.3-18.1 16.9-20.8 12.3-.4 15.1 5.2c2.7 5.6.4 12.4-5.2 15.1h0z"/><path id="G" d="M191 463.4c-6.2.9-25.7-7.5-25.7-7.5s16.1-13.9 22.3-14.8 11.9 3.3 12.8 9.4c1 6.3-3.2 12-9.4 12.9h0 0z"/><path id="H" d="M179 514.5c-5.9 2-26.6-3-26.6-3s13.6-16.4 19.5-18.4 12.3 1.2 14.3 7.1c1.9 6-1.3 12.3-7.2 14.3h0z"/><path id="I" d="M679.4 512.3c-35.8 1.6-95.3 8.2-104.3-1.6-14.5-15.9-9.4-30.3-1.9-39 2.9-3.4 5.6-9.2 7.7-14.9.7-1.9 1.4-3.9 2-5.7 2.3-7.1 10-12 18.7-12h72.2c8.8 0 16.5 5 18.7 12.1 1 3.3 2.6 6.5 4.6 9.4 1.1 1.5 2.3 2.8 3.7 4 3.6 3.1 6 9.8 7.5 17.1 3.3 15.4-10.3 29.8-28.9 30.6z"/><path id="J" d="M587.1 617.2c-3.1-.6-11.3-2.4-14.5-4.8-.7-.5-1.7-.4-2.2.4-.1.1-.1.2-.2.3l-4.9 11.4s-20-9-21 12c-.6 12.3 5.6 16.7 10.9 18.2 4.7 1.3 9.1 3.4 13.1 6.3 4.8 3.6 12.1 7.3 20.5 5.3 1.7-.4 3.4-.6 5.1-.5 3.7.1 10.2-1 9.5-10.3 0 0-6-24-4-28 1.3-2.5.9-9 .5-13.5-.1-.6-.6-1-1.2-1-.3 0-.6.2-.8.4a8.82 8.82 0 0 1-7.7 4c-1.1.1-2.1 0-3.1-.2z"/><path id="K" d="M691.6 617.2c3.1-.6 11.3-2.4 14.5-4.8.7-.5 1.7-.4 2.2.4.1.1.1.2.2.3l4.9 11.4s20-9 21 12c.6 12.3-5.6 16.7-10.9 18.2-4.7 1.3-9.1 3.4-13 6.3-4.8 3.6-12.1 7.3-20.5 5.3-1.7-.4-3.4-.6-5.1-.5-3.7.1-10.2-1-9.5-10.3 0 0 6-24 4-28-1.3-2.5-.9-9-.5-13.5.1-.6.6-1 1.2-1 .3 0 .6.2.8.4a8.82 8.82 0 0 0 7.7 4c1 .1 2 0 3-.2z"/><path id="L" d="M647.2 493.7c74 2.6 76.4-25.8 76.4-25.8l-4.8-78.6c-1.2-122.4-71.7-104.4-71.7-104.4s-70.5-18-71.7 104.4l-4.8 78.6c.2 0 2.6 28.3 76.6 25.8z"/><path id="M" d="M647.2 538h80l6-11.9c3.6-20.3-9.5-21.5-9.5-21.5H570.8s-13.1 1.2-9.5 21.5l6 11.9h79.9z"/></defs></svg>