<svg xmlns="http://www.w3.org/2000/svg" viewBox="0 0 1200 627" xmlns:v="https://vecta.io/nano"><path fill="#e6e6e6" d="M107 1h978v626H107z"/><path fill="#fff" d="M135 79h922v511H135z"/><path fill="#6c63ff" d="M107 0h978v42H107z"/><g fill="#fff"><circle cx="137.9" cy="21.2" r="7.7"/><circle cx="167.1" cy="21.2" r="7.7"/><circle cx="196.3" cy="21.2" r="7.7"/></g><g fill="#ccc"><path d="M796.4 127H496.2c-1.4-.1-2.5-1.5-2.3-2.8.1-1.1 1.2-2 2.3-2.2h300c1.4.1 2.5 1.5 2.3 2.8 0 1.1-1 1.9-2.1 2.2zm-208.1 29H397.7c-1.4-.1-2.5-1.5-2.3-2.8.1-1.1 1.2-2 2.3-2.2h190.8c1.4.1 2.5 1.5 2.3 2.8-.3 1.1-1.2 2.1-2.5 2.2zm208.1 0H605.5c-1.4-.1-2.5-1.5-2.3-2.8.1-1.1 1.2-2 2.3-2.2h190.8c1.4.1 2.5 1.5 2.3 2.8-.1 1.3-1.1 2.1-2.2 2.2zm-207.5 29H398.1c-1.4-.1-2.5-1.5-2.3-2.8.1-1.1 1.2-2 2.3-2.2h190.8c1.4.1 2.5 1.5 2.3 2.8-.3 1.1-1.1 2.1-2.3 2.2zm.5 29H398.5c-1.4-.1-2.5-1.5-2.3-2.8.1-1.1 1.2-2 2.3-2.2h190.8c1.4.1 2.5 1.5 2.3 2.8-.1 1.1-1.1 2.1-2.2 2.2zm86.5-29h-54.6c-1.4-.1-2.5-1.5-2.3-2.8.1-1.1 1.2-2 2.3-2.2h54.6c1.4.1 2.5 1.5 2.3 2.8-.1 1.1-1 2.1-2.3 2.2h0zm0 28h-54.6c-1.4-.1-2.5-1.5-2.3-2.8.1-1.1 1.2-2 2.3-2.2h54.6c1.4.1 2.5 1.5 2.3 2.8-.1 1.3-1 2.1-2.3 2.2h0zm91.7 0H713c-1.4-.1-2.5-1.5-2.3-2.8.1-1.1 1.2-2 2.3-2.2h54.6c1.4.1 2.5 1.5 2.3 2.8-.1 1.3-1.1 2.1-2.3 2.2z"/><path d="M450.8 127h-54.6c-1.4-.1-2.5-1.5-2.3-2.8.1-1.1 1.2-2 2.3-2.2h54.6c1.4.1 2.5 1.5 2.3 2.8-.1 1.1-1 1.9-2.3 2.2zm137 333H396.9c-1.4-.1-2.5-1.5-2.3-2.8.1-1.1 1.2-2 2.3-2.2h190.8c1.4.1 2.5 1.5 2.3 2.8-.2 1.1-1.1 2.1-2.2 2.2h0zm-1 58H395.9c-1.4-.1-2.5-1.5-2.3-2.8.1-1.1 1.2-2 2.3-2.2h190.8c1.4.1 2.5 1.5 2.3 2.8-.1 1.3-1.1 2.1-2.2 2.2zm.4 29H396.5c-1.4-.1-2.5-1.5-2.3-2.8.1-1.1 1.2-2 2.3-2.2h190.8c1.4.1 2.5 1.5 2.3 2.8s-1.1 2.1-2.4 2.2h0zm81.6-29H614c-1.4-.1-2.5-1.5-2.3-2.8.1-1.1 1.2-2 2.3-2.2h54.6c1.4.1 2.5 1.5 2.3 2.8-.1 1.1-.9 2.1-2.1 2.2h0zm0 29H614c-1.4-.1-2.5-1.5-2.3-2.8.1-1.1 1.2-2 2.3-2.2h54.6c1.4.1 2.5 1.5 2.3 2.8-.1 1.3-.9 2.1-2.1 2.2h0zm91.6-29h-54.6c-1.4-.1-2.5-1.5-2.3-2.8.1-1.1 1.2-2 2.3-2.2h54.6c1.4.1 2.5 1.5 2.3 2.8-.1 1.1-1 2.1-2.3 2.2zm36.1-29h-300c-1.4-.1-2.5-1.5-2.3-2.8.1-1.1 1.2-2 2.3-2.2h300c1.4.1 2.5 1.5 2.3 2.8-.1 1.1-1 2.1-2.3 2.2z"/><path d="M451.1 489h-54.6c-1.4-.1-2.5-1.5-2.3-2.8.1-1.1 1.2-2 2.3-2.2h54.6c1.4.1 2.5 1.5 2.3 2.8-.1 1.1-1.1 2.1-2.3 2.2z"/></g><path d="M541.7 261l-74.1 73.1 74.1 73.3 16.6-16.8-56.1-56 56.5-56.5zm109.2 0l74.1 73.1-74.1 73.3-16.6-16.8 56-56-56.5-56.5z" fill="#e6e6e6"/><path d="M541.7 261l-74.1 73.1 74.1 73.3 16.6-16.8-56.1-56 56.5-56.5zm109.2 0l74.1 73.1-74.1 73.3-16.6-16.8 56-56-56.5-56.5z" fill="#6c63ff"/></svg>