<?xml version="1.0" encoding="utf-8"?>
<!-- Generator: Adobe Illustrator 24.0.0, SVG Export Plug-In . SVG Version: 6.00 Build 0)  -->
<svg version="1.1" id="Calque_1" xmlns="http://www.w3.org/2000/svg" xmlns:xlink="http://www.w3.org/1999/xlink" x="0px" y="0px"
	 viewBox="0 0 1200 627" enable-background=" 0 0 1200 627" xml:space="preserve">
<rect x="107" y="1" fill="#E6E6E6" width="978" height="626"/>
<rect x="135" y="79" fill="#FFFFFF" width="922" height="511"/>
<rect x="107" fill="#6C63FF" width="978" height="42"/>
<circle fill="#FFFFFF" cx="137.9" cy="21.2" r="7.7"/>
<circle fill="#FFFFFF" cx="167.1" cy="21.2" r="7.7"/>
<circle fill="#FFFFFF" cx="196.3" cy="21.2" r="7.7"/>
<path fill="#CCCCCC" d="M796.4,127H496.2c-1.4-0.1-2.5-1.5-2.3-2.8c0.1-1.1,1.2-2,2.3-2.2h300c1.4,0.1,2.5,1.5,2.3,2.8
	C798.5,125.9,797.5,126.7,796.4,127z"/>
<path fill="#CCCCCC" d="M588.3,156H397.7c-1.4-0.1-2.5-1.5-2.3-2.8c0.1-1.1,1.2-2,2.3-2.2h190.8c1.4,0.1,2.5,1.5,2.3,2.8
	C590.5,154.9,589.6,155.9,588.3,156z"/>
<path fill="#CCCCCC" d="M796.4,156H605.5c-1.4-0.1-2.5-1.5-2.3-2.8c0.1-1.1,1.2-2,2.3-2.2h190.8c1.4,0.1,2.5,1.5,2.3,2.8
	C798.5,155.1,797.5,155.9,796.4,156z"/>
<path fill="#CCCCCC" d="M588.9,185H398.1c-1.4-0.1-2.5-1.5-2.3-2.8c0.1-1.1,1.2-2,2.3-2.2h190.8c1.4,0.1,2.5,1.5,2.3,2.8
	C590.9,183.9,590.1,184.9,588.9,185z"/>
<path fill="#CCCCCC" d="M589.4,214H398.5c-1.4-0.1-2.5-1.5-2.3-2.8c0.1-1.1,1.2-2,2.3-2.2h190.8c1.4,0.1,2.5,1.5,2.3,2.8
	C591.5,212.9,590.5,213.9,589.4,214z"/>
<path fill="#CCCCCC" d="M675.9,185h-54.6c-1.4-0.1-2.5-1.5-2.3-2.8c0.1-1.1,1.2-2,2.3-2.2h54.6c1.4,0.1,2.5,1.5,2.3,2.8
	C678.1,183.9,677.2,184.9,675.9,185L675.9,185z"/>
<path fill="#CCCCCC" d="M675.9,213h-54.6c-1.4-0.1-2.5-1.5-2.3-2.8c0.1-1.1,1.2-2,2.3-2.2h54.6c1.4,0.1,2.5,1.5,2.3,2.8
	C678.1,212.1,677.2,212.9,675.9,213L675.9,213z"/>
<path fill="#CCCCCC" d="M767.6,213H713c-1.4-0.1-2.5-1.5-2.3-2.8c0.1-1.1,1.2-2,2.3-2.2h54.6c1.4,0.1,2.5,1.5,2.3,2.8
	C769.8,212.1,768.8,212.9,767.6,213z"/>
<path fill="#CCCCCC" d="M450.8,127h-54.6c-1.4-0.1-2.5-1.5-2.3-2.8c0.1-1.1,1.2-2,2.3-2.2h54.6c1.4,0.1,2.5,1.5,2.3,2.8
	C453,125.9,452.1,126.7,450.8,127z"/>
<path fill="#CCCCCC" d="M587.8,460H396.9c-1.4-0.1-2.5-1.5-2.3-2.8c0.1-1.1,1.2-2,2.3-2.2h190.8c1.4,0.1,2.5,1.5,2.3,2.8
	C589.8,458.9,588.9,459.9,587.8,460L587.8,460z"/>
<path fill="#CCCCCC" d="M586.8,518H395.9c-1.4-0.1-2.5-1.5-2.3-2.8c0.1-1.1,1.2-2,2.3-2.2h190.8c1.4,0.1,2.5,1.5,2.3,2.8
	C588.9,517.1,587.9,517.9,586.8,518z"/>
<path fill="#CCCCCC" d="M587.2,547H396.5c-1.4-0.1-2.5-1.5-2.3-2.8c0.1-1.1,1.2-2,2.3-2.2h190.8c1.4,0.1,2.5,1.5,2.3,2.8
	C589.4,546.1,588.5,546.9,587.2,547L587.2,547z"/>
<path fill="#CCCCCC" d="M668.8,518h-54.8c-1.4-0.1-2.5-1.5-2.3-2.8c0.1-1.1,1.2-2,2.3-2.2h54.6c1.4,0.1,2.5,1.5,2.3,2.8
	C670.8,516.9,670,517.9,668.8,518L668.8,518z"/>
<path fill="#CCCCCC" d="M668.8,547h-54.8c-1.4-0.1-2.5-1.5-2.3-2.8c0.1-1.1,1.2-2,2.3-2.2h54.6c1.4,0.1,2.5,1.5,2.3,2.8
	C670.8,546.1,670,546.9,668.8,547L668.8,547z"/>
<path fill="#CCCCCC" d="M760.4,518h-54.6c-1.4-0.1-2.5-1.5-2.3-2.8c0.1-1.1,1.2-2,2.3-2.2h54.6c1.4,0.1,2.5,1.5,2.3,2.8
	C762.6,516.9,761.7,517.9,760.4,518z"/>
<path fill="#CCCCCC" d="M796.5,489h-300c-1.4-0.1-2.5-1.5-2.3-2.8c0.1-1.1,1.2-2,2.3-2.2h300c1.4,0.1,2.5,1.5,2.3,2.8
	C798.7,487.9,797.8,488.9,796.5,489z"/>
<path fill="#CCCCCC" d="M451.1,489h-54.6c-1.4-0.1-2.5-1.5-2.3-2.8c0.1-1.1,1.2-2,2.3-2.2h54.6c1.4,0.1,2.5,1.5,2.3,2.8
	C453.3,487.9,452.3,488.9,451.1,489z"/>
<polygon fill="#E6E6E6" points="541.7,261 467.6,334.1 541.7,407.4 558.3,390.6 502.2,334.6 558.7,278.1 "/>
<polygon fill="#E6E6E6" points="650.9,261 725,334.1 650.9,407.4 634.3,390.6 690.3,334.6 633.8,278.1 "/>
<polygon fill="#6C63FF" points="541.7,261 467.6,334.1 541.7,407.4 558.3,390.6 502.2,334.6 558.7,278.1 "/>
<polygon fill="#6C63FF" points="650.9,261 725,334.1 650.9,407.4 634.3,390.6 690.3,334.6 633.8,278.1 "/>
</svg>
