<?xml version="1.0" encoding="utf-8"?>
<!-- Generator: Adobe Illustrator 24.0.0, SVG Export Plug-In . SVG Version: 6.00 Build 0)  -->
<svg version="1.1" id="dafc5a10-31ce-4f4f-9768-af24e79fd7c2"
	 xmlns="http://www.w3.org/2000/svg" xmlns:xlink="http://www.w3.org/1999/xlink" x="0px" y="0px" viewBox="0 0 1126.6 785.9"
	 style="enable-background: 0 0 1126.6 785.9;" xml:space="preserve">
<style type="text/css">
	.st0{opacity:0.1;fill:#2588CD;enable-background:    ;}
	.st1{fill:#474059;}
	.st2{fill:#FFFFFF;}
	.st3{fill:#C0BCCF;}
	.st4{opacity:0.1;enable-background:    ;}
	.st5{fill:#53350A;}
	.st6{fill:none;stroke:#535461;stroke-width:2;stroke-miterlimit:10;}
	.st7{fill:#8DB600;}
	.st8{fill:#2588CD;}
	.st9{opacity:0.8;fill:#8DB600;enable-background:    ;}
	.st10{fill:#E8EAF1;}
	.st11{fill:#D6E6F9;}
	.st12{fill:#5F546F;}
	.st13{fill:#FFCED8;}
	.st14{fill:#BC8387;}
	.st15{fill:#AE767A;}
	.st16{fill:#CB919B;}
	.st17{opacity:0.1;fill:#FFFFFF;enable-background:    ;}
	.st18{fill:#5A5773;}
	.st19{opacity:0.2;enable-background:    ;}
	.st20{fill:#53350A;enable-background:    ;}
	.st21{fill:#8DB600;enable-background:    ;}
	.st22{fill:none;stroke:#53350A;stroke-miterlimit:10;}
	.st23{fill:#3F3D56;}
	.st24{fill:#E6E8EC;}
	.st25{fill:#E6E6E6;}
	.st26{fill:#6C63FF;}
</style>
<path class="st0" d="M1060,458.2c-39.1,53.7-26.2,130.4-3.6,191.5c7.6,20.5,16.2,42.1,12.3,64.3c-4.8,27.2-27.4,47.6-50.8,58.7
	c-42.8,20.2-93.3,17-131.5-8.5c-33-22-56.2-58.6-89.9-79.5c-56.3-35-129.4-19.4-192,7.4c-44.3,18.9-92.9,43.3-136.1,25.8
	c-30.4-12.3-50.9-43.6-61.6-77.1c-5.2-16.2-8.8-33.7-19.2-46.3c-6.2-7.5-14.3-12.8-22.7-17.1c-76.4-40-174.6-15-248.7-59.6
	c-50-30.1-81.1-88.6-94.1-150.1s-9.7-126.4-4.6-190.2C21.2,132.1,27,83.6,54.2,48C83.1,10.3,131.4-4.7,174.6,1.2
	s81.9,29.9,115.8,58.5c42.4,35.8,81.4,80.6,134.1,94.2c35.9,9.2,74.1,2.7,111.4-0.2c62.4-4.8,124.6,0.7,186.4,7
	c59.2,6,118.7,12.7,174.8,32.4c39.7,13.9,71.1,40.2,108.4,58.2c24.3,11.7,51.1,14.4,74,29.6c28.3,18.6,53.8,51.7,45.5,91.3
	C1117.2,410,1080.8,429.7,1060,458.2z"/>
<title>social networking</title>
<path class="st1" d="M390.3,158.9h186.2c5.3,0,9.6,4.3,9.6,9.6v118.8c0,5.3-4.3,9.6-9.6,9.6H390.3c-5.3,0-9.6-4.3-9.6-9.6V168.5
	C380.6,163.2,385,158.9,390.3,158.9z"/>
<rect x="385" y="175" class="st2" width="196.4" height="112.8"/>
<ellipse class="st2" cx="483.2" cy="169.2" rx="1.7" ry="1.9"/>
<rect x="464.8" y="292" class="st1" width="36" height="38"/>
<path class="st1" d="M461.8,327h44c3.3,0,6,2.7,6,6l0,0l0,0h-56l0,0l0,0C455.8,329.6,458.5,327,461.8,327z"/>
<rect x="232.8" y="359" class="st3" width="148" height="51"/>
<rect x="836.8" y="334" class="st3" width="32" height="278"/>
<rect x="232.8" y="359" class="st4" width="148" height="3"/>
<rect x="836.8" y="334" class="st4" width="32" height="28"/>
<rect x="232.8" y="408" class="st3" width="148" height="51"/>
<circle class="st5" cx="306.8" cy="433" r="9"/>
<circle class="st5" cx="306.8" cy="384" r="9"/>
<rect x="232.8" y="459" class="st3" width="148" height="51"/>
<circle class="st5" cx="306.8" cy="483" r="9"/>
<rect x="232.8" y="510" class="st3" width="148" height="51"/>
<circle class="st5" cx="306.8" cy="534" r="9"/>
<rect x="232.8" y="561" class="st3" width="148" height="51"/>
<circle class="st5" cx="306.8" cy="585" r="9"/>
<circle class="st5" cx="305.8" cy="433" r="9"/>
<circle class="st5" cx="305.8" cy="384" r="9"/>
<circle class="st5" cx="305.8" cy="483" r="9"/>
<circle class="st5" cx="305.8" cy="534" r="9"/>
<circle class="st5" cx="305.8" cy="585" r="9"/>
<rect x="232.8" y="456" class="st4" width="148" height="4"/>
<rect x="232.8" y="406" class="st4" width="148" height="4"/>
<rect x="232.8" y="507" class="st4" width="148" height="4"/>
<rect x="232.8" y="558" class="st4" width="148" height="4"/>
<path class="st6" d="M151.6,575.2c0,0-3.3-97.8-56.2-153c-22.2-23.2-36.8-52.6-40.6-84.5c-1.8-15.1-2.2-30.4-1.2-45.6"/>
<path class="st7" d="M19.4,257.2c3.6,10.9,33.9,36,33.9,36s9.3-38.2,5.7-49.1c-3.6-10.9-15.4-16.8-26.3-13.2
	C21.7,234.5,15.8,246.3,19.4,257.2L19.4,257.2z"/>
<path class="st7" d="M6.8,328.5c9,7.2,48,11.8,48,11.8s-13-37.1-22-44.3c-9-7.2-22.1-5.8-29.3,3.2S-2.2,321.3,6.8,328.5L6.8,328.5
	L6.8,328.5z"/>
<path class="st7" d="M42.5,431.4c11.4,1.7,47.4-14,47.4-14s-30-25.5-41.3-27.2c-11.4-1.7-22,6.2-23.6,17.6
	C23.3,419.1,31.1,429.7,42.5,431.4L42.5,431.4L42.5,431.4z"/>
<path class="st7" d="M87,503.1c10.9,3.6,49.1-5.8,49.1-5.8s-25.2-30.2-36.1-33.8c-10.9-3.6-22.7,2.4-26.3,13.3
	C70.1,487.7,76,499.5,87,503.1L87,503.1z"/>
<path class="st7" d="M97,328.7c-5.3,10.2-39.2,30.2-39.2,30.2s-3.1-39.2,2.2-49.4c5.3-10.2,17.9-14.2,28.1-8.9
	C98.4,305.9,102.3,318.5,97,328.7z"/>
<path class="st7" d="M148,413.2c-8.1,8.1-46.4,17.1-46.4,17.1s8.8-38.3,16.9-46.5c8.1-8.1,21.3-8.2,29.4-0.1
	C156.1,391.9,156.1,405.1,148,413.2L148,413.2z"/>
<path class="st7" d="M186.3,502.2c-6.6,9.4-42.9,24.7-42.9,24.7s2.2-39.3,8.8-48.7c6.3-9.6,19.2-12.3,28.8-6
	c9.6,6.3,12.3,19.2,6,28.8C186.8,501.5,186.6,501.9,186.3,502.2L186.3,502.2z"/>
<path class="st6" d="M140,534.8c0,0,30-43.6,24.7-84.7c-2.3-17.2,1-34.7,9.5-49.9c4.1-7.2,8.8-14,14.1-20.3"/>
<path class="st8" d="M185.2,354.1c-1.9,5.9,3.2,26.6,3.2,26.6s16.3-13.7,18.3-19.6c1.9-5.9-1.3-12.3-7.2-14.2
	S187.1,348.2,185.2,354.1L185.2,354.1z"/>
<path class="st8" d="M156.7,381.1c1.6,6,17.1,20.6,17.1,20.6s6.3-20.3,4.7-26.4c-1.6-6-7.8-9.6-13.8-8
	C158.7,368.9,155.1,375.1,156.7,381.1L156.7,381.1L156.7,381.1z"/>
<path class="st8" d="M139.2,437.3c4.4,4.4,25.2,9.1,25.2,9.1s-4.8-20.7-9.3-25.1c-4.4-4.4-11.6-4.4-15.9,0.1
	C134.7,425.8,134.8,433,139.2,437.3L139.2,437.3z"/>
<path class="st8" d="M135.5,483c3.6,5.1,23.3,13.3,23.3,13.3s-1.3-21.3-4.9-26.3c-3.6-5.1-10.6-6.3-15.7-2.7
	C133.1,470.8,131.9,477.9,135.5,483L135.5,483z"/>
<path class="st8" d="M196,410.2c-5.6,2.7-26.8,0.5-26.8,0.5s11.3-18.1,16.9-20.8c5.6-2.7,12.3-0.4,15.1,5.2
	C203.9,400.7,201.6,407.5,196,410.2L196,410.2z"/>
<path class="st8" d="M191,463.4c-6.2,0.9-25.7-7.5-25.7-7.5s16.1-13.9,22.3-14.8c6.2-0.9,11.9,3.3,12.8,9.4
	C201.4,456.8,197.2,462.5,191,463.4L191,463.4L191,463.4z"/>
<path class="st8" d="M179,514.5c-5.9,2-26.6-3-26.6-3s13.6-16.4,19.5-18.4c5.9-2,12.3,1.2,14.3,7.1
	C188.1,506.2,184.9,512.5,179,514.5L179,514.5z"/>
<path class="st9" d="M185.2,354.1c-1.9,5.9,3.2,26.6,3.2,26.6s16.3-13.7,18.3-19.6c1.9-5.9-1.3-12.3-7.2-14.2
	S187.1,348.2,185.2,354.1L185.2,354.1z"/>
<path class="st9" d="M156.7,381.1c1.6,6,17.1,20.6,17.1,20.6s6.3-20.3,4.7-26.4c-1.6-6-7.8-9.6-13.8-8
	C158.7,368.9,155.1,375.1,156.7,381.1L156.7,381.1L156.7,381.1z"/>
<path class="st9" d="M139.2,437.3c4.4,4.4,25.2,9.1,25.2,9.1s-4.8-20.7-9.3-25.1c-4.4-4.4-11.6-4.4-15.9,0.1
	C134.7,425.8,134.8,433,139.2,437.3L139.2,437.3z"/>
<path class="st9" d="M135.5,483c3.6,5.1,23.3,13.3,23.3,13.3s-1.3-21.3-4.9-26.3c-3.6-5.1-10.6-6.3-15.7-2.7
	C133.1,470.8,131.9,477.9,135.5,483L135.5,483z"/>
<path class="st9" d="M196,410.2c-5.6,2.7-26.8,0.5-26.8,0.5s11.3-18.1,16.9-20.8c5.6-2.7,12.3-0.4,15.1,5.2
	C203.9,400.7,201.6,407.5,196,410.2L196,410.2z"/>
<path class="st9" d="M191,463.4c-6.2,0.9-25.7-7.5-25.7-7.5s16.1-13.9,22.3-14.8c6.2-0.9,11.9,3.3,12.8,9.4
	C201.4,456.8,197.2,462.5,191,463.4L191,463.4L191,463.4z"/>
<path class="st9" d="M179,514.5c-5.9,2-26.6-3-26.6-3s13.6-16.4,19.5-18.4c5.9-2,12.3,1.2,14.3,7.1
	C188.1,506.2,184.9,512.5,179,514.5L179,514.5z"/>
<polygon class="st1" points="195.5,653.1 110.2,653.1 88.8,523 216.8,523 "/>
<polygon class="st4" points="200.5,523 180.6,644.6 108.8,644.6 110.2,653.1 195.5,653.1 216.8,523 "/>
<rect x="229.8" y="330" class="st3" width="643" height="30"/>
<rect x="500.8" y="188.9" class="st10" width="72" height="3"/>
<rect x="500.8" y="196.9" class="st10" width="72" height="3"/>
<rect x="500.8" y="204.9" class="st10" width="72" height="3"/>
<rect x="500.8" y="212.9" class="st10" width="72" height="3"/>
<rect x="500.8" y="220.9" class="st10" width="72" height="3"/>
<rect x="500.8" y="228.9" class="st10" width="72" height="3"/>
<rect x="500.8" y="236.9" class="st10" width="72" height="3"/>
<rect x="500.8" y="244.9" class="st10" width="72" height="3"/>
<rect x="500.8" y="252.9" class="st10" width="72" height="3"/>
<rect x="500.8" y="261" class="st10" width="72" height="3"/>
<rect x="500.8" y="269" class="st10" width="72" height="3"/>
<path class="st11" d="M707.3,598.5l-4,26l-24-5c0,0,5-17,6-21s1,0,1,0H707.3z"/>
<path class="st11" d="M599.3,619.5l-24,5l-2.8-18l-1.2-8h21c0,0,0-4,1,0c0.4,1.4,1.2,4.6,2.2,8C597.3,612.5,599.3,619.5,599.3,619.5
	z"/>
<path class="st4" d="M595.6,606.5h-23l-1.2-8h21c0,0,0-4,1,0C593.7,599.9,594.6,603,595.6,606.5z"/>
<path class="st4" d="M683.1,606h23l1.2-8h-21c0,0,0-4-1,0C685,599.4,684.1,602.5,683.1,606z"/>
<path class="st11" d="M730.3,283.5c0,0,13,1,16,48c1.1,17.6,3.3,35.2,6.8,52.5c3,14.5,1.6,29.5-4,43.2l-12.8,31.3c0,0-24-20-32-19
	c0,0,14-19,13-30s-17-90-17-90L730.3,283.5z"/>
<path class="st12" d="M580.3,432.5c0,0-31,19-38,27s-4,40,0,53s29,92,29,92h25c0,0-8-49-5-53s-6-75-6-75L580.3,432.5z"/>
<path class="st12" d="M698.3,432.5c0,0,31,19,38,27s4,40,0,53s-29,92-29,92h-25c0,0,8-49,5-53s6-75,6-75L698.3,432.5z"/>
<path class="st4" d="M580.3,432.5c0,0-31,19-38,27s-4,40,0,53s29,92,29,92h25c0,0-8-49-5-53s-6-75-6-75L580.3,432.5z"/>
<path class="st4" d="M698.3,432.5c0,0,31,19,38,27s4,40,0,53s-29,92-29,92h-25c0,0,8-49,5-53s6-75,6-75L698.3,432.5z"/>
<path class="st13" d="M633.3,179.4c0,0,0,39-14,59s64,3,64,3c-3.6-2.6-6.2-6.3-7.5-10.5c-4.1-14.7-5.7-40.5,0.5-51.5
	C685.3,163.4,633.3,179.4,633.3,179.4z"/>
<circle class="st4" cx="655.8" cy="172.9" r="33"/>
<circle class="st13" cx="655.8" cy="171.9" r="33"/>
<path class="st12" d="M679.4,512.3c-35.8,1.6-95.3,8.2-104.3-1.6c-14.5-15.9-9.4-30.3-1.9-39c2.9-3.4,5.6-9.2,7.7-14.9
	c0.7-1.9,1.4-3.9,2-5.7c2.3-7.1,10-12,18.7-12h72.2c8.8,0,16.5,5,18.7,12.1c1,3.3,2.6,6.5,4.6,9.4c1.1,1.5,2.3,2.8,3.7,4
	c3.6,3.1,6,9.8,7.5,17.1C711.6,497.1,698,511.5,679.4,512.3z"/>
<path class="st4" d="M679.4,512.3c-35.8,1.6-95.3,8.2-104.3-1.6c-14.5-15.9-9.4-30.3-1.9-39c2.9-3.4,5.6-9.2,7.7-14.9
	c0.7-1.9,1.4-3.9,2-5.7c2.3-7.1,10-12,18.7-12h72.2c8.8,0,16.5,5,18.7,12.1c1,3.3,2.6,6.5,4.6,9.4c1.1,1.5,2.3,2.8,3.7,4
	c3.6,3.1,6,9.8,7.5,17.1C711.6,497.1,698,511.5,679.4,512.3z"/>
<path class="st4" d="M587.1,617.2c-3.1-0.6-11.3-2.4-14.5-4.8c-0.7-0.5-1.7-0.4-2.2,0.4c-0.1,0.1-0.1,0.2-0.2,0.3l-4.9,11.4
	c0,0-20-9-21,12c-0.6,12.3,5.6,16.7,10.9,18.2c4.7,1.3,9.1,3.4,13.1,6.3c4.8,3.6,12.1,7.3,20.5,5.3c1.7-0.4,3.4-0.6,5.1-0.5
	c3.7,0.1,10.2-1,9.5-10.3c0,0-6-24-4-28c1.3-2.5,0.9-9,0.5-13.5c-0.1-0.6-0.6-1-1.2-1c-0.3,0-0.6,0.2-0.8,0.4
	c-1.7,2.6-4.6,4.1-7.7,4C589.1,617.5,588.1,617.4,587.1,617.2z"/>
<path class="st14" d="M587.1,618.2c-3.1-0.6-11.3-2.4-14.5-4.8c-0.7-0.5-1.7-0.4-2.2,0.4c-0.1,0.1-0.1,0.2-0.2,0.3l-4.9,11.4
	c0,0-20-9-21,12c-0.6,12.3,5.6,16.7,10.9,18.2c4.7,1.3,9.1,3.4,13.1,6.3c4.8,3.6,12.1,7.3,20.5,5.3c1.7-0.4,3.4-0.6,5.1-0.5
	c3.7,0.1,10.2-1,9.5-10.3c0,0-6-24-4-28c1.3-2.5,0.9-9,0.5-13.5c-0.1-0.6-0.6-1-1.2-1c-0.3,0-0.6,0.2-0.8,0.4
	c-1.7,2.6-4.6,4.1-7.7,4C589.1,618.5,588.1,618.4,587.1,618.2z"/>
<path class="st4" d="M691.6,617.2c3.1-0.6,11.3-2.4,14.5-4.8c0.7-0.5,1.7-0.4,2.2,0.4c0.1,0.1,0.1,0.2,0.2,0.3l4.9,11.4
	c0,0,20-9,21,12c0.6,12.3-5.6,16.7-10.9,18.2c-4.7,1.3-9.1,3.4-13,6.3c-4.8,3.6-12.1,7.3-20.5,5.3c-1.7-0.4-3.4-0.6-5.1-0.5
	c-3.7,0.1-10.2-1-9.5-10.3c0,0,6-24,4-28c-1.3-2.5-0.9-9-0.5-13.5c0.1-0.6,0.6-1,1.2-1c0.3,0,0.6,0.2,0.8,0.4c1.7,2.6,4.6,4.1,7.7,4
	C689.6,617.5,690.6,617.4,691.6,617.2z"/>
<path class="st14" d="M691.6,618.2c3.1-0.6,11.3-2.4,14.5-4.8c0.7-0.5,1.7-0.4,2.2,0.4c0.1,0.1,0.1,0.2,0.2,0.3l4.9,11.4
	c0,0,20-9,21,12c0.6,12.3-5.6,16.7-10.9,18.2c-4.7,1.3-9.1,3.4-13,6.3c-4.8,3.6-12.1,7.3-20.5,5.3c-1.7-0.4-3.4-0.6-5.1-0.5
	c-3.7,0.1-10.2-1-9.5-10.3c0,0,6-24,4-28c-1.3-2.5-0.9-9-0.5-13.5c0.1-0.6,0.6-1,1.2-1c0.3,0,0.6,0.2,0.8,0.4c1.7,2.6,4.6,4.1,7.7,4
	C689.6,618.5,690.6,618.4,691.6,618.2z"/>
<path class="st13" d="M512.3,204.4c0,0,9-29-15-33s-18,31,0,44S512.3,204.4,512.3,204.4z"/>
<path class="st4" d="M698.3,433.5c-28,46-122-6-122-6s-2.2-1.2-3.8-5.2c0.8-2.4,1.5-4.9,2.1-7.2c2.5-9,10.6-15.2,19.9-15.1h77
	c9.3,0,17.5,6.2,19.9,15.2c1.1,4.1,2.7,8.1,4.9,11.7C697.4,431,698.3,433.5,698.3,433.5z"/>
<path class="st11" d="M635.3,210.5h-6c0,0-4,18-17,18c-3.5,0-8.2-0.2-13.3-0.5c-15.3-0.8-30.7,1-45.4,5.4
	c-5.1,1.5-10.6,1.6-15.3-1.9c-12-9-25-33-25-33s-23-1-24,12s11,37,14,40s3,22,24,27s36,7,37,32s21,51,11,80s1,35,1,35s94,52,122,6
	c0,0-11-31,0-46s6-52,6-52l36-36c0,0,1-23-14-35s-50-31-50-31l3.5-14.9L635.3,210.5z"/>
<path class="st15" d="M637.4,181.1c-0.8,9.4-0.5,20.1,6.5,26.5c3.4,3.1,8,4.7,12.5,5.8c4.7,1.1,9.6,1.9,14.4,2.1
	c4.4,0.2,9.2,0,12.9-2.4c7.6-4.9,7.5-15.9,10.5-24.5c2.2-6.1,6.2-11.2,9.1-17c5.3-10.4,6.5-23.3,1.6-33.9s-16.5-18.2-28.2-16.9
	c-3.8,0.6-7.5,1.6-11,3.1c-8.4,3.1-15-5.6-23.5-2.6c-4.6,1.7-22.9,3.5-24,9c-1.3,6.5,16.4,22.7,18.3,28.4
	C639.1,166.2,637.4,173.6,637.4,181.1z"/>
<path class="st4" d="M622.8,223.4c0,0,6,2.5,23,7.5s30,0,30,0"/>
<path class="st4" d="M577.8,366.4c0,0,28,1.6,37,13.6s12,16,23,16s46,2,51,4"/>
<rect x="636.5" y="669.4" class="st3" width="16.7" height="19.1"/>
<rect x="741.6" y="434.1" class="st16" width="13.1" height="96.7"/>
<rect x="720.1" y="529.7" class="st16" width="28.7" height="3.6"/>
<rect x="536.2" y="434.1" class="st16" width="13.1" height="96.7"/>
<rect x="538.5" y="529.7" class="st16" width="28.7" height="3.6"/>
<rect x="632.9" y="535.6" class="st3" width="27.5" height="117"/>
<path class="st16" d="M647.2,493.7c74,2.6,76.4-25.8,76.4-25.8l-4.8-78.6c-1.2-122.4-71.7-104.4-71.7-104.4s-70.5-18-71.7,104.4
	l-4.8,78.6C570.8,467.9,573.2,496.2,647.2,493.7z"/>
<path class="st17" d="M647.2,493.7c74,2.6,76.4-25.8,76.4-25.8l-4.8-78.6c-1.2-122.4-71.7-104.4-71.7-104.4s-70.5-18-71.7,104.4
	l-4.8,78.6C570.8,467.9,573.2,496.2,647.2,493.7z"/>
<path class="st16" d="M645.2,488.8c70.6,2.5,72.8-24.6,72.8-24.6l-4.5-74.9c-1.1-116.7-68.3-99.5-68.3-99.5s-67.2-17.2-68.3,99.5
	l-4.5,74.9C572.4,464.2,574.7,491.2,645.2,488.8z"/>
<path class="st3" d="M643,456.8h4.9c6.9,0,12.5,5.6,12.5,12.5v26.4c0,6.9-5.6,12.5-12.5,12.5H643c-6.9,0-12.5-5.6-12.5-12.5v-26.4
	C630.5,462.4,636.1,456.8,643,456.8z"/>
<path class="st4" d="M660.3,648.5v4.2h-27.4v-4.1l2.4-0.6H658L660.3,648.5z"/>
<path class="st3" d="M535,688.5c0,0-12-9.5,100.4-39.4H658c0,0,96.7,23.9,97.9,39.4h-14.3c0,0-52.5-15.5-76.4-15.5
	s-95.5,2.4-117,15.5L535,688.5z"/>
<path class="st16" d="M539.6,419.8h5c7.2,0,13,5.8,13,13l0,0v6.1l0,0h-31l0,0v-6.1C526.6,425.6,532.4,419.8,539.6,419.8L539.6,419.8
	z"/>
<path class="st16" d="M745,419.8h5c7.2,0,13,5.8,13,13l0,0v6.1l0,0h-31l0,0v-6.1C732,425.6,737.8,419.8,745,419.8L745,419.8z"/>
<circle class="st18" cx="540.9" cy="696.9" r="8.4"/>
<circle class="st18" cx="644.8" cy="696.9" r="8.4"/>
<circle class="st18" cx="749.9" cy="696.9" r="8.4"/>
<rect x="632.9" y="535.6" class="st4" width="27.5" height="4.8"/>
<path class="st16" d="M647.2,538h80l6-11.9c3.6-20.3-9.5-21.5-9.5-21.5H570.8c0,0-13.1,1.2-9.5,21.5l6,11.9H647.2z"/>
<path class="st17" d="M647.2,538h80l6-11.9c3.6-20.3-9.5-21.5-9.5-21.5H570.8c0,0-13.1,1.2-9.5,21.5l6,11.9H647.2z"/>
<path class="st16" d="M647.2,538h80l6-10.2c3.6-17.4-9.5-18.4-9.5-18.4H570.8c0,0-13.1,1-9.5,18.4l6,10.2H647.2z"/>
<path class="st7" d="M808.3,300.4c0,0-9.1-3.1-13.5,5c-2.4,4.4-2.3,9.8,0.2,14.1c2.9,5.2,8.8,12,20.1,11.4
	c9.6-0.5,12.7-7.8,13.6-14.6c1-8.2-4.8-15.7-13-16.7c-2.3-0.3-4.7,0-6.9,0.7L808.3,300.4z"/>
<path class="st17" d="M796.9,320.2c-2.5-4.4-2.5-9.7-0.2-14.1c4.4-8,13.5-5,13.5-5l0.5-0.2c3.5-1.3,7.3-1.2,10.7,0.2
	c-3.8-2.3-8.5-2.7-12.7-1.2l-0.5,0.2c0,0-9.1-3.1-13.5,5c-2.4,4.4-2.3,9.8,0.2,14.1c2.3,4.3,5.9,7.7,10.3,9.8
	C801.8,326.9,798.9,323.9,796.9,320.2z"/>
<path class="st19" d="M803.6,304.3c0,0,3.4,2.7,11.6,0"/>
<path class="st8" d="M802.9,285c0,0,5.8,15.7,5.3,19.8l4.6-0.5c0,0-7.7-13.8-5.8-19.3L802.9,285z"/>
<path class="st20" d="M802.9,285c0,0,5.8,15.7,5.3,19.8l4.6-0.5c0,0-7.7-13.8-5.8-19.3L802.9,285z"/>
<path class="st8" d="M826.6,286.3c0,0-9.1-4.7-13.2-0.8s-4.7,13.7-4.7,13.7S823.5,301.2,826.6,286.3z"/>
<path class="st21" d="M826.6,286.3c0,0-9.1-4.7-13.2-0.8s-4.7,13.7-4.7,13.7S823.5,301.2,826.6,286.3z"/>
<path class="st22" d="M808.7,299.2c0,0,2.4-11.5,17.9-12.9"/>
<path class="st23" d="M459.3,208.6v9.8c0,0.2-0.2,0.3-0.3,0.3h-0.2v50.9c0,2.9-2.4,5.3-5.3,5.3h-31.8c-2.9,0-5.3-2.4-5.3-5.3
	c0,0,0,0,0,0v-49.1h-0.2c-0.1,0-0.2-0.1-0.2-0.2v-5.6c0-0.1,0.1-0.2,0.2-0.2c0,0,0,0,0,0h0.2v-2.1h-0.2c-0.1,0-0.3-0.1-0.3-0.3v-5.5
	c0-0.1,0.1-0.3,0.3-0.3h0.2v-2.9H416c-0.1,0-0.2-0.1-0.2-0.2c0,0,0,0,0,0v-3c0-0.1,0.1-0.2,0.2-0.2h0.2V194c0-2.9,2.4-5.3,5.3-5.3
	h31.8c2.9,0,5.3,2.4,5.3,5.3v14.3h0.2C459.1,208.3,459.3,208.5,459.3,208.6z"/>
<path class="st24" d="M433.8,191.5h5.2c0.2,0,0.4,0.2,0.4,0.4v0.4c0,0.2-0.2,0.4-0.4,0.4h-5.2c-0.2,0-0.4-0.2-0.4-0.4v-0.4
	C433.4,191.6,433.6,191.5,433.8,191.5z"/>
<circle class="st24" cx="440.9" cy="192.1" r="0.7"/>
<path class="st2" d="M456.1,195.1v75c0,1.9-1.5,3.4-3.4,3.4h-30.5c-1.9,0-3.4-1.5-3.4-3.4c0,0,0,0,0,0v-75c0-1.9,1.5-3.4,3.4-3.4
	c0,0,0,0,0,0h4.6v0.6c0,1.5,1.2,2.8,2.8,2.8h15.5c1.5,0,2.8-1.2,2.8-2.8v-0.6h4.9C454.6,191.7,456.1,193.2,456.1,195.1
	C456.1,195.1,456.1,195.1,456.1,195.1z"/>
<rect x="422.1" y="241.1" class="st25" width="31" height="4"/>
<rect x="422.1" y="248.3" class="st25" width="31" height="4"/>
<rect x="422.1" y="255.4" class="st25" width="31" height="4"/>
<circle class="st26" cx="449.7" cy="202.3" r="3"/>
<rect x="422.1" y="212.2" class="st25" width="31" height="20.5"/>
<path class="st23" d="M434.4,223.8c0.9,3.3,4,5.4,4,5.4s1.6-3.3,0.7-6.7s-4-5.4-4-5.4S433.5,220.4,434.4,223.8z"/>
<path class="st26" d="M435.7,223.1c2.5,2.4,2.8,6.1,2.8,6.1s-3.7-0.2-6.2-2.6s-2.8-6.1-2.8-6.1S433.2,220.7,435.7,223.1z"/>
<path class="st23" d="M442.6,223.8c-0.9,3.3-4,5.4-4,5.4s-1.6-3.3-0.7-6.7s4-5.4,4-5.4S443.5,220.4,442.6,223.8z"/>
<path class="st26" d="M441.3,223.1c-2.5,2.4-2.8,6.1-2.8,6.1s3.7-0.2,6.2-2.6s2.8-6.1,2.8-6.1S443.8,220.7,441.3,223.1z"/>
</svg>
