<svg xmlns="http://www.w3.org/2000/svg" xmlns:xlink="http://www.w3.org/1999/xlink" viewBox="0 0 1076.1 755.2" xmlns:v="https://vecta.io/nano"><path d="M864.1 702.4c-7 26.6-31.5 43.2-31.5 43.2s-13.2-26.5-6.2-53.1 31.5-43.2 31.5-43.2 13.2 26.5 6.2 53.1z" fill="#3f3d56"/><path d="M853.6 696.8c-19.6 19.3-21.8 48.8-21.8 48.8s29.5-1.8 49.1-21.2 21.8-48.8 21.8-48.8-29.6 1.9-49.1 21.2z" fill="#2588cd"/><use xlink:href="#B" fill="#2f2e41"/><use xlink:href="#B" opacity=".1"/><use xlink:href="#C" fill="#a0616a"/><use xlink:href="#C" opacity=".8" fill="#ffb8b8"/><path d="M176.3 434.7l28.9 56.6s-6.6 27.6-17.1 30.3-55.3-34.2-55.3-34.2l43.5-52.7z" fill="#d0cde1"/><path d="M176.3 434.7l28.9 56.6s-6.6 27.6-17.1 30.3-55.3-34.2-55.3-34.2l43.5-52.7z" opacity=".1"/><path d="M529.5 572.5l8.6 35.3c.1.4.1.8 0 1.2l-38.8 121.2a2.16 2.16 0 0 1-2.8 1.4c-.8-.3-1.4-1-1.5-1.8l-5.4-47.2c0-.3 0-.6.1-.9l35.6-109.3a2.16 2.16 0 0 1 2.8-1.4c.6.2 1.2.8 1.4 1.5z" fill="#2f2e41"/><path d="M526.3 575.5l7.9 30.3L500 716.3l-7.9-34.2z" fill="#f2f2f2"/><path d="M353.9 740c1.3 3.9 136.8-1.3 138.2-2.6a29.95 29.95 0 0 0 2.9-5.3l2.4-5.3-5.3-42.6-134.2-4.8s-3.4 36.1-4 52.6c-.2 4.2-.2 7.2 0 8z" fill="#2f2e41"/><path d="M475 690l2.6 36.8h-59.2V690zm-76.3 11.8l.3-.1-1.6 15.9h-32.9v-15.8zM353.9 740c1.3 3.9 136.8-1.3 138.2-2.6a29.95 29.95 0 0 0 2.9-5.3H353.8c-.1 4.1-.1 7.1.1 7.9z" opacity=".1"/><g fill="#ffb8b8"><circle cx="196" cy="357.1" r="59.2"/><path d="M192.1 409.7s-19.7 34.2-23.7 52.6-59.2-36.8-59.2-36.8l-7.2-19.1s52-24.3 48-44.1 42.1 47.4 42.1 47.4zm10.5 102.6l53.9 71.1 128.9 96.1s93.4 19.7 72.4 34.2-81.6-13.2-81.6-13.2-130.2-69.7-157.8-98.7-78.9-77.6-78.9-77.6l63.1-11.9z"/></g><path d="M130.3 622.9l15.8 25 94.2-29.6c20.7-6.5 43.3-4.1 61.7 7.4 16.4 10.4 27 26.8 3.3 51.2-47.4 48.7-78.9 22.4-78.9 22.4s-159.2 75-185.5 38.2-27.6-55.3-27.6-55.3 101.2-63.3 117-59.3z" fill="#2f2e41"/><path d="M327.6 709.7s42.1 27.6-7.9 40.8-86.8-5.3-86.8-5.3-43.4 0-43.4-22.4 14.5-25 14.5-25l44.7 6.6c0 0 53.9-14.4 78.9 5.3z" fill="#d0cde1"/><path d="M244.6 342.2c4 1.8 8 3.9 12.4 4.4s9.4-1 11.4-4.9c1.1-2.1 1.2-4.6 1.3-7 .2-7.2-.4-15-4.9-20.6-2.9-3.6-7.2-5.8-10.2-9.3-2.2-2.5-3.6-5.5-5.1-8.4-5.9-11-14.6-21.6-26.6-24.8-5-1.3-10.3-1.3-15.5-1.2l-30.4.4c-4.9.1-9.9.2-14.6 1.6-9.8 3-16.9 11.2-23.4 19.1-4.9 5.9-9.8 11.8-13.4 18.5-5.3 9.8-7.9 20.8-7.7 31.9 0 2.9.3 5.7 1.1 8.4.9 2.5 2 5 3.3 7.3 5.7 11.2 9.1 25.2 2.7 36 11.2-4.6 22.2-10.5 29.5-20.1 3.3-4.3 5.9-9.3 10.3-12.4s11.5-3.4 14.3 1.2c1 1.9 1.5 3.9 1.5 6 .2 3.4.2 7 1.7 10.2s4.9 5.7 8.3 4.7c5.7-1.6 5.2-10.4 9.6-14.4 3.4-3 8.5-2.5 12.8-3.8 5-1.6 8.8-5.9 10.9-10.8 1.6-3.7 1.6-13.2 4.7-15.2 3.6-2.4 12.4 1.6 16 3.2z" fill="#2f2e41"/><g fill="#d0cde1"><path d="M97.3 400.2c2.7-.7 5.5-.7 8.1 0 8.4 2.3 27.4 8.3 31.4 17.4 5.3 11.8 23.7 30.3 23.7 30.3s25 25 19.7 42.1-25 36.8-25 36.8 5.3 81.6-21.1 102.6-36.8 6.6-36.8 26.3S15.8 737.3 0 699.2c0 0 7.9-71.1 5.3-96.1-2.6-24.6 1.2-178.3 92-202.9z"/><path d="M139.5 433.4s80.3 59.2 65.8 84.2c0 0-48.7 23.7-59.2 22.4s-51.3-47.4-61.8-51.3-15.9-75 55.2-55.3z"/></g><path d="M748.1 744.5h283v2h-283z" fill="#3f3d56"/><path d="M399.3-.1H1076v433.4H399.3z" fill="#e6e6e6"/><path d="M418.7 54.3h638v353.4h-638z" fill="#fff"/><path d="M399-.5h676.7v28.8H399z" fill="#6c63ff"/><g fill="#fff"><circle cx="420.4" cy="14.2" r="5.3"/><circle cx="440.6" cy="14.2" r="5.3"/><circle cx="460.8" cy="14.2" r="5.3"/></g><g fill="#ccc"><path d="M876.2 87.4H668.4c-1-.1-1.7-1.1-1.6-2.1.1-.8.8-1.5 1.6-1.6h207.7c1 .1 1.7 1.1 1.6 2.1 0 .8-.7 1.4-1.5 1.6zm-144 20.1h-132c-1-.1-1.7-1.1-1.6-2.1.1-.8.8-1.5 1.6-1.6h132.1c1 .1 1.7 1.1 1.6 2.1-.2.8-.8 1.5-1.7 1.6zm144 .3H744.1c-1-.1-1.7-1.1-1.6-2.1.1-.8.8-1.5 1.6-1.6h132.1c1 .1 1.7 1.1 1.6 2.1-.1.9-.8 1.5-1.6 1.6zm-143.6 19.8H600.5c-1-.1-1.7-1.1-1.6-2.1.1-.8.8-1.5 1.6-1.6h132.1c1 .1 1.7 1.1 1.6 2.1-.2.8-.8 1.5-1.6 1.6zm.3 20.1H600.8c-1-.1-1.7-1.1-1.6-2.1.1-.8.8-1.5 1.6-1.6h132.1c1 .1 1.7 1.1 1.6 2.1-.1.8-.8 1.5-1.6 1.6zm59.9-20.1H755c-1-.1-1.7-1.1-1.6-2.1.1-.8.8-1.5 1.6-1.6h37.8c1 .1 1.7 1.1 1.6 2.1-.1.8-.7 1.5-1.6 1.6h0zm0 19.7H755c-1-.1-1.7-1.1-1.6-2.1.1-.8.8-1.5 1.6-1.6h37.8c1 .1 1.7 1.1 1.6 2.1-.1.9-.7 1.5-1.6 1.6h0zm63.5 0h-37.8c-1-.1-1.7-1.1-1.6-2.1.1-.8.8-1.5 1.6-1.6h37.8c1 .1 1.7 1.1 1.6 2.1-.1.9-.8 1.5-1.6 1.6z"/><path d="M637 87.4h-37.8c-1-.1-1.7-1.1-1.6-2.1.1-.8.8-1.5 1.6-1.6H637c1 .1 1.7 1.1 1.6 2.1-.1.8-.7 1.4-1.6 1.6zm94.8 230.5H599.7c-1-.1-1.7-1.1-1.6-2.1.1-.8.8-1.5 1.6-1.6h132.1c1 .1 1.7 1.1 1.6 2.1-.2.8-.8 1.5-1.6 1.6h0zm-.7 40.2H599c-1-.1-1.7-1.1-1.6-2.1.1-.8.8-1.5 1.6-1.6h132.1c1 .1 1.7 1.1 1.6 2.1-.1.9-.8 1.5-1.6 1.6zm.3 20.1h-132c-1-.1-1.7-1.1-1.6-2.1.1-.8.8-1.5 1.6-1.6h132.1c1 .1 1.7 1.1 1.6 2.1-.2.9-.8 1.5-1.7 1.6h0zm56.5-19.7H750c-1-.1-1.7-1.1-1.6-2.1.1-.8.8-1.5 1.6-1.6h37.8c1 .1 1.7 1.1 1.6 2.1-.1.8-.7 1.5-1.5 1.6h0zm0 19.7H750c-1-.1-1.7-1.1-1.6-2.1.1-.8.8-1.5 1.6-1.6h37.8c1 .1 1.7 1.1 1.6 2.1-.1.9-.7 1.5-1.5 1.6h0zm63.4-19.7h-37.8c-1-.1-1.7-1.1-1.6-2.1.1-.8.8-1.5 1.6-1.6h37.8c1 .1 1.7 1.1 1.6 2.1-.1.8-.7 1.5-1.6 1.6zm25-20.5H668.6c-1-.1-1.7-1.1-1.6-2.1.1-.8.8-1.5 1.6-1.6h207.7c1 .1 1.7 1.1 1.6 2.1-.1.8-.7 1.5-1.6 1.6z"/><path d="M637.2 338h-37.8c-1-.1-1.7-1.1-1.6-2.1.1-.8.8-1.5 1.6-1.6h37.8c1 .1 1.7 1.1 1.6 2.1-.1.8-.8 1.5-1.6 1.6z"/></g><path d="M699.9 180.2l-51.3 50.6 51.3 50.7 11.5-11.6-38.8-38.8 39.1-39.1zm75.6 0l51.3 50.6-51.3 50.7-11.5-11.6 38.8-38.8-39.1-39.1z" fill="#e6e6e6"/><path d="M699.9 180.2l-51.3 50.6 51.3 50.7 11.5-11.6-38.8-38.8 39.1-39.1zm75.6 0l51.3 50.6-51.3 50.7-11.5-11.6 38.8-38.8-39.1-39.1z" fill="#6c63ff"/><defs ><path id="B" d="M144.7 601.8h36.8l90.8-35.5s64.5-26.3 59.2 23.7S317 707.1 317 707.1s-28.9-13.2-44.7-9.2-5.3-80.3-5.3-80.3-128.9 61.8-140.8 53.9-14.5-63.2-14.5-63.2l33-6.5z"/><path id="C" d="M202.8 486.4l44.6 64.1 103.9 86.8s96.1 22.4 82.9 38.2-93.4-15.8-93.4-15.8-119.8-86.8-123.7-93.4-47.4-68.4-47.4-68.4l33.1-11.5z"/></defs></svg>